<?xml version="1.0" encoding="UTF-8" standalone="yes"?>
<svg xmlns="http://www.w3.org/2000/svg" xmlns:xlink="http://www.w3.org/1999/xlink" width="1024" zoomAndPan="magnify" viewBox="0 0 768 576" height="768" preserveAspectRatio="xMidYMid meet" version="1.0">
  <defs>
    <g/>
  </defs>
  <g fill="#643db8" fill-opacity="0.302">
    <g transform="translate(67.013784, 298.881905)">
      <g>
        <path d="M 0 -97.847656 L 0 0.140625 L 72.164062 0.140625 L 72.164062 -31.265625 L 60.4375 -45.921875 L 72.582031 -55.832031 L 72.582031 -97.847656 Z M 24.007812 -73.558594 L 48.15625 -73.558594 L 48.15625 -55.832031 L 24.007812 -55.832031 Z M 48.15625 -24.566406 L 24.007812 -24.566406 L 24.007812 -53.738281 Z M 48.15625 -24.566406 "/>
      </g>
    </g>
  </g>
  <g fill="#643db8" fill-opacity="0.302">
    <g transform="translate(158.569905, 298.881905)">
      <g>
        <path d="M 66.023438 -97.707031 L -0.140625 -97.707031 L -0.140625 0 L 66.023438 0 L 66.023438 -24.148438 L 24.285156 -24.148438 L 24.285156 -73.558594 L 66.023438 -73.558594 Z M 66.023438 -97.707031 "/>
      </g>
    </g>
  </g>
  <g fill="#643db8" fill-opacity="0.302">
    <g transform="translate(243.706111, 298.881905)">
      <g/>
    </g>
  </g>
  <g fill="#643db8" fill-opacity="0.302">
    <g transform="translate(294.788861, 298.881905)">
      <g>
        <path d="M 24.425781 -97.707031 L 0 -97.707031 L 0 0 L 24.425781 0 L 24.425781 -27.917969 L 48.992188 -51.925781 L 48.992188 0 L 73.417969 0 L 73.417969 -97.707031 L 48.992188 -97.707031 L 48.992188 -55.414062 L 24.425781 -55.414062 Z M 24.425781 -97.707031 "/>
      </g>
    </g>
  </g>
  <g fill="#643db8" fill-opacity="0.302">
    <g transform="translate(387.601072, 298.881905)">
      <g>
        <path d="M 0 -97.984375 L 0 -0.140625 L 24.425781 -0.140625 L 24.425781 -47.179688 L 48.851562 -24.285156 L 48.851562 -0.140625 L 73.558594 -0.140625 L 73.558594 -97.984375 Z M 24.425781 -48.851562 L 24.425781 -73.417969 L 48.851562 -73.417969 L 48.851562 -48.851562 Z M 24.425781 -48.851562 "/>
      </g>
    </g>
  </g>
  <g fill="#643db8" fill-opacity="0.302">
    <g transform="translate(479.994589, 298.881905)">
      <g>
        <path d="M 66.023438 -97.707031 L -0.140625 -97.707031 L -0.140625 0 L 66.023438 0 L 66.023438 -24.148438 L 24.285156 -24.148438 L 24.285156 -73.558594 L 66.023438 -73.558594 Z M 66.023438 -97.707031 "/>
      </g>
    </g>
  </g>
  <g fill="#643db8" fill-opacity="0.302">
    <g transform="translate(565.130785, 298.881905)">
      <g>
        <path d="M 24.425781 -40.757812 L 24.425781 -97.847656 L 0 -97.847656 L 0 0 L 24.425781 0 L 24.425781 -38.664062 L 48.433594 -38.664062 L 48.433594 0 L 72.859375 0 L 72.859375 -38.664062 L 60.578125 -48.714844 L 72.304688 -62.949219 L 72.304688 -97.847656 L 48.433594 -97.847656 L 48.433594 -69.789062 Z M 24.425781 -40.757812 "/>
      </g>
    </g>
  </g>
  <g fill="#643db8" fill-opacity="0.302">
    <g transform="translate(657.245186, 298.881905)">
      <g>
        <path d="M 74.675781 -97.984375 L -0.140625 -97.984375 L -0.140625 -66.441406 L 23.589844 -41.734375 L 24.285156 -41.734375 L 24.285156 -73.417969 L 74.675781 -73.417969 Z M 49.96875 -24.566406 L -0.140625 -24.566406 L -0.140625 0 L 74.675781 0 L 74.675781 -35.734375 L 51.226562 -54.996094 L 49.96875 -54.996094 Z M 49.96875 -24.566406 "/>
      </g>
    </g>
  </g>
  <g fill="#643db8" fill-opacity="0.502">
    <g transform="translate(66.894787, 298.754288)">
      <g>
        <path d="M 0 -97.847656 L 0 0.140625 L 72.164062 0.140625 L 72.164062 -31.265625 L 60.4375 -45.921875 L 72.582031 -55.832031 L 72.582031 -97.847656 Z M 24.007812 -73.558594 L 48.15625 -73.558594 L 48.15625 -55.832031 L 24.007812 -55.832031 Z M 48.15625 -24.566406 L 24.007812 -24.566406 L 24.007812 -53.738281 Z M 48.15625 -24.566406 "/>
      </g>
    </g>
  </g>
  <g fill="#643db8" fill-opacity="0.502">
    <g transform="translate(158.450908, 298.754288)">
      <g>
        <path d="M 66.023438 -97.707031 L -0.140625 -97.707031 L -0.140625 0 L 66.023438 0 L 66.023438 -24.148438 L 24.285156 -24.148438 L 24.285156 -73.558594 L 66.023438 -73.558594 Z M 66.023438 -97.707031 "/>
      </g>
    </g>
  </g>
  <g fill="#643db8" fill-opacity="0.502">
    <g transform="translate(243.587114, 298.754288)">
      <g/>
    </g>
  </g>
  <g fill="#643db8" fill-opacity="0.502">
    <g transform="translate(294.669864, 298.754288)">
      <g>
        <path d="M 24.425781 -97.707031 L 0 -97.707031 L 0 0 L 24.425781 0 L 24.425781 -27.917969 L 48.992188 -51.925781 L 48.992188 0 L 73.417969 0 L 73.417969 -97.707031 L 48.992188 -97.707031 L 48.992188 -55.414062 L 24.425781 -55.414062 Z M 24.425781 -97.707031 "/>
      </g>
    </g>
  </g>
  <g fill="#643db8" fill-opacity="0.502">
    <g transform="translate(387.482075, 298.754288)">
      <g>
        <path d="M 0 -97.984375 L 0 -0.140625 L 24.425781 -0.140625 L 24.425781 -47.179688 L 48.851562 -24.285156 L 48.851562 -0.140625 L 73.558594 -0.140625 L 73.558594 -97.984375 Z M 24.425781 -48.851562 L 24.425781 -73.417969 L 48.851562 -73.417969 L 48.851562 -48.851562 Z M 24.425781 -48.851562 "/>
      </g>
    </g>
  </g>
  <g fill="#643db8" fill-opacity="0.502">
    <g transform="translate(479.875592, 298.754288)">
      <g>
        <path d="M 66.023438 -97.707031 L -0.140625 -97.707031 L -0.140625 0 L 66.023438 0 L 66.023438 -24.148438 L 24.285156 -24.148438 L 24.285156 -73.558594 L 66.023438 -73.558594 Z M 66.023438 -97.707031 "/>
      </g>
    </g>
  </g>
  <g fill="#643db8" fill-opacity="0.502">
    <g transform="translate(565.011788, 298.754288)">
      <g>
        <path d="M 24.425781 -40.757812 L 24.425781 -97.847656 L 0 -97.847656 L 0 0 L 24.425781 0 L 24.425781 -38.664062 L 48.433594 -38.664062 L 48.433594 0 L 72.859375 0 L 72.859375 -38.664062 L 60.578125 -48.714844 L 72.304688 -62.949219 L 72.304688 -97.847656 L 48.433594 -97.847656 L 48.433594 -69.789062 Z M 24.425781 -40.757812 "/>
      </g>
    </g>
  </g>
  <g fill="#643db8" fill-opacity="0.502">
    <g transform="translate(657.126189, 298.754288)">
      <g>
        <path d="M 74.675781 -97.984375 L -0.140625 -97.984375 L -0.140625 -66.441406 L 23.589844 -41.734375 L 24.285156 -41.734375 L 24.285156 -73.417969 L 74.675781 -73.417969 Z M 49.96875 -24.566406 L -0.140625 -24.566406 L -0.140625 0 L 74.675781 0 L 74.675781 -35.734375 L 51.226562 -54.996094 L 49.96875 -54.996094 Z M 49.96875 -24.566406 "/>
      </g>
    </g>
  </g>
  <g fill="#fb4fab" fill-opacity="1">
    <g transform="translate(66.77579, 298.626684)">
      <g>
        <path d="M 0 -97.847656 L 0 0.140625 L 72.164062 0.140625 L 72.164062 -31.265625 L 60.4375 -45.921875 L 72.582031 -55.832031 L 72.582031 -97.847656 Z M 24.007812 -73.558594 L 48.15625 -73.558594 L 48.15625 -55.832031 L 24.007812 -55.832031 Z M 48.15625 -24.566406 L 24.007812 -24.566406 L 24.007812 -53.738281 Z M 48.15625 -24.566406 "/>
      </g>
    </g>
  </g>
  <g fill="#fb4fab" fill-opacity="1">
    <g transform="translate(158.331912, 298.626684)">
      <g>
        <path d="M 66.023438 -97.707031 L -0.140625 -97.707031 L -0.140625 0 L 66.023438 0 L 66.023438 -24.148438 L 24.285156 -24.148438 L 24.285156 -73.558594 L 66.023438 -73.558594 Z M 66.023438 -97.707031 "/>
      </g>
    </g>
  </g>
  <g fill="#fb4fab" fill-opacity="1">
    <g transform="translate(243.468117, 298.626684)">
      <g/>
    </g>
  </g>
  <g fill="#fb4fab" fill-opacity="1">
    <g transform="translate(294.550867, 298.626684)">
      <g>
        <path d="M 24.425781 -97.707031 L 0 -97.707031 L 0 0 L 24.425781 0 L 24.425781 -27.917969 L 48.992188 -51.925781 L 48.992188 0 L 73.417969 0 L 73.417969 -97.707031 L 48.992188 -97.707031 L 48.992188 -55.414062 L 24.425781 -55.414062 Z M 24.425781 -97.707031 "/>
      </g>
    </g>
  </g>
  <g fill="#fb4fab" fill-opacity="1">
    <g transform="translate(387.363078, 298.626684)">
      <g>
        <path d="M 0 -97.984375 L 0 -0.140625 L 24.425781 -0.140625 L 24.425781 -47.179688 L 48.851562 -24.285156 L 48.851562 -0.140625 L 73.558594 -0.140625 L 73.558594 -97.984375 Z M 24.425781 -48.851562 L 24.425781 -73.417969 L 48.851562 -73.417969 L 48.851562 -48.851562 Z M 24.425781 -48.851562 "/>
      </g>
    </g>
  </g>
  <g fill="#fb4fab" fill-opacity="1">
    <g transform="translate(479.756595, 298.626684)">
      <g>
        <path d="M 66.023438 -97.707031 L -0.140625 -97.707031 L -0.140625 0 L 66.023438 0 L 66.023438 -24.148438 L 24.285156 -24.148438 L 24.285156 -73.558594 L 66.023438 -73.558594 Z M 66.023438 -97.707031 "/>
      </g>
    </g>
  </g>
  <g fill="#fb4fab" fill-opacity="1">
    <g transform="translate(564.892791, 298.626684)">
      <g>
        <path d="M 24.425781 -40.757812 L 24.425781 -97.847656 L 0 -97.847656 L 0 0 L 24.425781 0 L 24.425781 -38.664062 L 48.433594 -38.664062 L 48.433594 0 L 72.859375 0 L 72.859375 -38.664062 L 60.578125 -48.714844 L 72.304688 -62.949219 L 72.304688 -97.847656 L 48.433594 -97.847656 L 48.433594 -69.789062 Z M 24.425781 -40.757812 "/>
      </g>
    </g>
  </g>
  <g fill="#fb4fab" fill-opacity="1">
    <g transform="translate(657.007192, 298.626684)">
      <g>
        <path d="M 74.675781 -97.984375 L -0.140625 -97.984375 L -0.140625 -66.441406 L 23.589844 -41.734375 L 24.285156 -41.734375 L 24.285156 -73.417969 L 74.675781 -73.417969 Z M 49.96875 -24.566406 L -0.140625 -24.566406 L -0.140625 0 L 74.675781 0 L 74.675781 -35.734375 L 51.226562 -54.996094 L 49.96875 -54.996094 Z M 49.96875 -24.566406 "/>
      </g>
    </g>
  </g>
  <g fill="#643db8" fill-opacity="0.302">
    <g transform="translate(56.761793, 295.037393)">
      <g>
        <path d="M 0 -97.847656 L 0 0.140625 L 72.164062 0.140625 L 72.164062 -31.265625 L 60.4375 -45.921875 L 72.582031 -55.832031 L 72.582031 -97.847656 Z M 24.007812 -73.558594 L 48.15625 -73.558594 L 48.15625 -55.832031 L 24.007812 -55.832031 Z M 48.15625 -24.566406 L 24.007812 -24.566406 L 24.007812 -53.738281 Z M 48.15625 -24.566406 "/>
      </g>
    </g>
  </g>
  <g fill="#643db8" fill-opacity="0.302">
    <g transform="translate(148.317914, 295.037393)">
      <g>
        <path d="M 66.023438 -97.707031 L -0.140625 -97.707031 L -0.140625 0 L 66.023438 0 L 66.023438 -24.148438 L 24.285156 -24.148438 L 24.285156 -73.558594 L 66.023438 -73.558594 Z M 66.023438 -97.707031 "/>
      </g>
    </g>
  </g>
  <g fill="#643db8" fill-opacity="0.302">
    <g transform="translate(233.45412, 295.037393)">
      <g/>
    </g>
  </g>
  <g fill="#643db8" fill-opacity="0.302">
    <g transform="translate(284.53687, 295.037393)">
      <g>
        <path d="M 24.425781 -97.707031 L 0 -97.707031 L 0 0 L 24.425781 0 L 24.425781 -27.917969 L 48.992188 -51.925781 L 48.992188 0 L 73.417969 0 L 73.417969 -97.707031 L 48.992188 -97.707031 L 48.992188 -55.414062 L 24.425781 -55.414062 Z M 24.425781 -97.707031 "/>
      </g>
    </g>
  </g>
  <g fill="#643db8" fill-opacity="0.302">
    <g transform="translate(377.349081, 295.037393)">
      <g>
        <path d="M 0 -97.984375 L 0 -0.140625 L 24.425781 -0.140625 L 24.425781 -47.179688 L 48.851562 -24.285156 L 48.851562 -0.140625 L 73.558594 -0.140625 L 73.558594 -97.984375 Z M 24.425781 -48.851562 L 24.425781 -73.417969 L 48.851562 -73.417969 L 48.851562 -48.851562 Z M 24.425781 -48.851562 "/>
      </g>
    </g>
  </g>
  <g fill="#643db8" fill-opacity="0.302">
    <g transform="translate(469.742598, 295.037393)">
      <g>
        <path d="M 66.023438 -97.707031 L -0.140625 -97.707031 L -0.140625 0 L 66.023438 0 L 66.023438 -24.148438 L 24.285156 -24.148438 L 24.285156 -73.558594 L 66.023438 -73.558594 Z M 66.023438 -97.707031 "/>
      </g>
    </g>
  </g>
  <g fill="#643db8" fill-opacity="0.302">
    <g transform="translate(554.878794, 295.037393)">
      <g>
        <path d="M 24.425781 -40.757812 L 24.425781 -97.847656 L 0 -97.847656 L 0 0 L 24.425781 0 L 24.425781 -38.664062 L 48.433594 -38.664062 L 48.433594 0 L 72.859375 0 L 72.859375 -38.664062 L 60.578125 -48.714844 L 72.304688 -62.949219 L 72.304688 -97.847656 L 48.433594 -97.847656 L 48.433594 -69.789062 Z M 24.425781 -40.757812 "/>
      </g>
    </g>
  </g>
  <g fill="#643db8" fill-opacity="0.302">
    <g transform="translate(646.993195, 295.037393)">
      <g>
        <path d="M 74.675781 -97.984375 L -0.140625 -97.984375 L -0.140625 -66.441406 L 23.589844 -41.734375 L 24.285156 -41.734375 L 24.285156 -73.417969 L 74.675781 -73.417969 Z M 49.96875 -24.566406 L -0.140625 -24.566406 L -0.140625 0 L 74.675781 0 L 74.675781 -35.734375 L 51.226562 -54.996094 L 49.96875 -54.996094 Z M 49.96875 -24.566406 "/>
      </g>
    </g>
  </g>
  <g fill="#643db8" fill-opacity="0.502">
    <g transform="translate(56.642794, 294.909776)">
      <g>
        <path d="M 0 -97.847656 L 0 0.140625 L 72.164062 0.140625 L 72.164062 -31.265625 L 60.4375 -45.921875 L 72.582031 -55.832031 L 72.582031 -97.847656 Z M 24.007812 -73.558594 L 48.15625 -73.558594 L 48.15625 -55.832031 L 24.007812 -55.832031 Z M 48.15625 -24.566406 L 24.007812 -24.566406 L 24.007812 -53.738281 Z M 48.15625 -24.566406 "/>
      </g>
    </g>
  </g>
  <g fill="#643db8" fill-opacity="0.502">
    <g transform="translate(148.198915, 294.909776)">
      <g>
        <path d="M 66.023438 -97.707031 L -0.140625 -97.707031 L -0.140625 0 L 66.023438 0 L 66.023438 -24.148438 L 24.285156 -24.148438 L 24.285156 -73.558594 L 66.023438 -73.558594 Z M 66.023438 -97.707031 "/>
      </g>
    </g>
  </g>
  <g fill="#643db8" fill-opacity="0.502">
    <g transform="translate(233.335121, 294.909776)">
      <g/>
    </g>
  </g>
  <g fill="#643db8" fill-opacity="0.502">
    <g transform="translate(284.417871, 294.909776)">
      <g>
        <path d="M 24.425781 -97.707031 L 0 -97.707031 L 0 0 L 24.425781 0 L 24.425781 -27.917969 L 48.992188 -51.925781 L 48.992188 0 L 73.417969 0 L 73.417969 -97.707031 L 48.992188 -97.707031 L 48.992188 -55.414062 L 24.425781 -55.414062 Z M 24.425781 -97.707031 "/>
      </g>
    </g>
  </g>
  <g fill="#643db8" fill-opacity="0.502">
    <g transform="translate(377.230082, 294.909776)">
      <g>
        <path d="M 0 -97.984375 L 0 -0.140625 L 24.425781 -0.140625 L 24.425781 -47.179688 L 48.851562 -24.285156 L 48.851562 -0.140625 L 73.558594 -0.140625 L 73.558594 -97.984375 Z M 24.425781 -48.851562 L 24.425781 -73.417969 L 48.851562 -73.417969 L 48.851562 -48.851562 Z M 24.425781 -48.851562 "/>
      </g>
    </g>
  </g>
  <g fill="#643db8" fill-opacity="0.502">
    <g transform="translate(469.623599, 294.909776)">
      <g>
        <path d="M 66.023438 -97.707031 L -0.140625 -97.707031 L -0.140625 0 L 66.023438 0 L 66.023438 -24.148438 L 24.285156 -24.148438 L 24.285156 -73.558594 L 66.023438 -73.558594 Z M 66.023438 -97.707031 "/>
      </g>
    </g>
  </g>
  <g fill="#643db8" fill-opacity="0.502">
    <g transform="translate(554.759795, 294.909776)">
      <g>
        <path d="M 24.425781 -40.757812 L 24.425781 -97.847656 L 0 -97.847656 L 0 0 L 24.425781 0 L 24.425781 -38.664062 L 48.433594 -38.664062 L 48.433594 0 L 72.859375 0 L 72.859375 -38.664062 L 60.578125 -48.714844 L 72.304688 -62.949219 L 72.304688 -97.847656 L 48.433594 -97.847656 L 48.433594 -69.789062 Z M 24.425781 -40.757812 "/>
      </g>
    </g>
  </g>
  <g fill="#643db8" fill-opacity="0.502">
    <g transform="translate(646.874196, 294.909776)">
      <g>
        <path d="M 74.675781 -97.984375 L -0.140625 -97.984375 L -0.140625 -66.441406 L 23.589844 -41.734375 L 24.285156 -41.734375 L 24.285156 -73.417969 L 74.675781 -73.417969 Z M 49.96875 -24.566406 L -0.140625 -24.566406 L -0.140625 0 L 74.675781 0 L 74.675781 -35.734375 L 51.226562 -54.996094 L 49.96875 -54.996094 Z M 49.96875 -24.566406 "/>
      </g>
    </g>
  </g>
  <g fill="#fbbad8" fill-opacity="1">
    <g transform="translate(56.523797, 294.782173)">
      <g>
        <path d="M 0 -97.847656 L 0 0.140625 L 72.164062 0.140625 L 72.164062 -31.265625 L 60.4375 -45.921875 L 72.582031 -55.832031 L 72.582031 -97.847656 Z M 24.007812 -73.558594 L 48.15625 -73.558594 L 48.15625 -55.832031 L 24.007812 -55.832031 Z M 48.15625 -24.566406 L 24.007812 -24.566406 L 24.007812 -53.738281 Z M 48.15625 -24.566406 "/>
      </g>
    </g>
  </g>
  <g fill="#fbbad8" fill-opacity="1">
    <g transform="translate(148.079918, 294.782173)">
      <g>
        <path d="M 66.023438 -97.707031 L -0.140625 -97.707031 L -0.140625 0 L 66.023438 0 L 66.023438 -24.148438 L 24.285156 -24.148438 L 24.285156 -73.558594 L 66.023438 -73.558594 Z M 66.023438 -97.707031 "/>
      </g>
    </g>
  </g>
  <g fill="#fbbad8" fill-opacity="1">
    <g transform="translate(233.216124, 294.782173)">
      <g/>
    </g>
  </g>
  <g fill="#fbbad8" fill-opacity="1">
    <g transform="translate(284.298874, 294.782173)">
      <g>
        <path d="M 24.425781 -97.707031 L 0 -97.707031 L 0 0 L 24.425781 0 L 24.425781 -27.917969 L 48.992188 -51.925781 L 48.992188 0 L 73.417969 0 L 73.417969 -97.707031 L 48.992188 -97.707031 L 48.992188 -55.414062 L 24.425781 -55.414062 Z M 24.425781 -97.707031 "/>
      </g>
    </g>
  </g>
  <g fill="#fbbad8" fill-opacity="1">
    <g transform="translate(377.111085, 294.782173)">
      <g>
        <path d="M 0 -97.984375 L 0 -0.140625 L 24.425781 -0.140625 L 24.425781 -47.179688 L 48.851562 -24.285156 L 48.851562 -0.140625 L 73.558594 -0.140625 L 73.558594 -97.984375 Z M 24.425781 -48.851562 L 24.425781 -73.417969 L 48.851562 -73.417969 L 48.851562 -48.851562 Z M 24.425781 -48.851562 "/>
      </g>
    </g>
  </g>
  <g fill="#fbbad8" fill-opacity="1">
    <g transform="translate(469.504602, 294.782173)">
      <g>
        <path d="M 66.023438 -97.707031 L -0.140625 -97.707031 L -0.140625 0 L 66.023438 0 L 66.023438 -24.148438 L 24.285156 -24.148438 L 24.285156 -73.558594 L 66.023438 -73.558594 Z M 66.023438 -97.707031 "/>
      </g>
    </g>
  </g>
  <g fill="#fbbad8" fill-opacity="1">
    <g transform="translate(554.640798, 294.782173)">
      <g>
        <path d="M 24.425781 -40.757812 L 24.425781 -97.847656 L 0 -97.847656 L 0 0 L 24.425781 0 L 24.425781 -38.664062 L 48.433594 -38.664062 L 48.433594 0 L 72.859375 0 L 72.859375 -38.664062 L 60.578125 -48.714844 L 72.304688 -62.949219 L 72.304688 -97.847656 L 48.433594 -97.847656 L 48.433594 -69.789062 Z M 24.425781 -40.757812 "/>
      </g>
    </g>
  </g>
  <g fill="#fbbad8" fill-opacity="1">
    <g transform="translate(646.755199, 294.782173)">
      <g>
        <path d="M 74.675781 -97.984375 L -0.140625 -97.984375 L -0.140625 -66.441406 L 23.589844 -41.734375 L 24.285156 -41.734375 L 24.285156 -73.417969 L 74.675781 -73.417969 Z M 49.96875 -24.566406 L -0.140625 -24.566406 L -0.140625 0 L 74.675781 0 L 74.675781 -35.734375 L 51.226562 -54.996094 L 49.96875 -54.996094 Z M 49.96875 -24.566406 "/>
      </g>
    </g>
  </g>
</svg>